<svg xmlns="http://www.w3.org/2000/svg" xmlns:xlink="http://www.w3.org/1999/xlink" id="Layer_1" data-name="Layer 1"
    viewBox="95.46 23.33 140.28 140.28">
    <defs>
        <style>
            .cls-1,
            .cls-2 {
                stroke-miterlimit: 10;
            }

            .cls-1 {
                stroke-width: 0.74px;
                fill: url(#New_Gradient_Swatch_1);
                stroke: url(#New_Gradient_Swatch_1-2);
            }

            .cls-2 {
                fill: none;
                stroke: #000;
                stroke-width: 2.94px;
            }

            .cls-3 {
                fill: #000;
            }
        </style>
        <linearGradient id="New_Gradient_Swatch_1" x1="95.83" y1="93.47" x2="235.37" y2="93.47"
            gradientUnits="userSpaceOnUse">
            <stop offset="0" stop-color="#ab841b" />
            <stop offset="0.5" stop-color="#fcf068" />
            <stop offset="1" stop-color="#ab841b" />
        </linearGradient>
        <linearGradient id="New_Gradient_Swatch_1-2" x1="95.46" y1="93.47" x2="235.74" y2="93.47"
            xlink:href="#New_Gradient_Swatch_1" />
    </defs>
    <title>Mentoor</title>
    <path class="cls-1" d="M165.6,23.7a69.77,69.77,0,1,0,69.77,69.77A69.77,69.77,0,0,0,165.6,23.7Z" />
    <circle class="cls-2" cx="165.6" cy="93.47" r="67.12" />
    <path class="cls-3"
        d="M115.24,113.37l1.34.59c.88.38,2.19.92,3.89,1.54A66.88,66.88,0,0,0,135.26,119a65.21,65.21,0,0,0,22.13-1,65.1,65.1,0,0,0,24.44-10.93,65.59,65.59,0,0,0,18.08-19.75,66.84,66.84,0,0,0,7.94-20.69,67.85,67.85,0,0,0,1.3-15.15c0-1.81-.17-3.21-.24-4.17l-.14-1.46.35,1.43c.21.93.52,2.32.8,4.13A60.4,60.4,0,0,1,210.29,67a62.24,62.24,0,0,1-25.57,44.08,64.11,64.11,0,0,1-13.12,7.27,63.3,63.3,0,0,1-13.44,3.74,61.41,61.41,0,0,1-23.32-.67,60.1,60.1,0,0,1-14.68-5.25c-1.63-.84-2.85-1.56-3.68-2.06Z" />
    <path class="cls-3"
        d="M171.17,148.6V120.81A64.39,64.39,0,0,1,159.54,124V148.6H158l7.36,7.17,7.37-7.17Zm-23-23.55a61.57,61.57,0,0,1-9.95-.79l14.34,16.44V124.9C151.05,125,149.59,125.05,148.13,125.05Zm44.54-76.88V58.61l-21.5,22.16h0A33.46,33.46,0,0,1,181.1,57l2.14-2.12h-9.51a4.68,4.68,0,0,1-4.61-5.47l2-11.84H159.54l2.05,11.84A4.68,4.68,0,0,1,157,54.87h-9.51L149.61,57a33.46,33.46,0,0,1,9.93,23.78h0L138,58.61V48.17H126.11V110.4l5.11,5.87c1.42.27,2.84.5,4.29.66a59,59,0,0,0,7.82.51c1.36,0,2.72,0,4.09-.14L137.59,107V75.33l19.92,19.53,7.84,7.68,7.85-7.68,19.92-19.53V93.49A63,63,0,0,0,204.6,71.08V48.17Zm.45,58.69v.1l-11.49,12.09-2.13-2.13c-.43.25-.87.49-1.31.71V140.7l26.41-30.3V91.88A64.66,64.66,0,0,1,193.12,106.86Z" />
</svg>